<mxfile host="app.diagrams.net" agent="Mozilla/5.0 (X11; Linux x86_64) AppleWebKit/537.36 (KHTML, like Gecko) Chrome/135.0.0.0 Safari/537.36" version="26.2.14">
  <diagram name="Page-1" id="Ce9czy_IpY3OsVMo6tB2">
    <mxGraphModel dx="826" dy="463" grid="1" gridSize="10" guides="1" tooltips="1" connect="1" arrows="1" fold="1" page="1" pageScale="1" pageWidth="827" pageHeight="1169" math="0" shadow="0">
      <root>
        <mxCell id="0" />
        <mxCell id="1" parent="0" />
        <mxCell id="yxxo4-zVaS4fGQQ0rP6h-1" value="Database" style="rounded=0;whiteSpace=wrap;html=1;" parent="1" vertex="1">
          <mxGeometry x="440" y="100" width="120" height="60" as="geometry" />
        </mxCell>
        <mxCell id="yxxo4-zVaS4fGQQ0rP6h-2" value="Ticketing System" style="rounded=0;whiteSpace=wrap;html=1;" parent="1" vertex="1">
          <mxGeometry x="200" y="100" width="120" height="60" as="geometry" />
        </mxCell>
        <mxCell id="yxxo4-zVaS4fGQQ0rP6h-3" value="Admin" style="shape=umlActor;verticalLabelPosition=bottom;verticalAlign=top;html=1;outlineConnect=0;" parent="1" vertex="1">
          <mxGeometry x="50" y="100" width="30" height="60" as="geometry" />
        </mxCell>
        <mxCell id="yxxo4-zVaS4fGQQ0rP6h-4" value="" style="endArrow=none;dashed=1;html=1;rounded=0;" parent="1" target="yxxo4-zVaS4fGQQ0rP6h-1" edge="1" source="on1UFeotRf2JKw0CUGzS-4">
          <mxGeometry width="50" height="50" relative="1" as="geometry">
            <mxPoint x="500" y="440" as="sourcePoint" />
            <mxPoint x="400" y="240" as="targetPoint" />
          </mxGeometry>
        </mxCell>
        <mxCell id="yxxo4-zVaS4fGQQ0rP6h-5" value="" style="endArrow=none;dashed=1;html=1;rounded=0;" parent="1" target="yxxo4-zVaS4fGQQ0rP6h-2" edge="1">
          <mxGeometry width="50" height="50" relative="1" as="geometry">
            <mxPoint x="260" y="440" as="sourcePoint" />
            <mxPoint x="400" y="240" as="targetPoint" />
          </mxGeometry>
        </mxCell>
        <mxCell id="yxxo4-zVaS4fGQQ0rP6h-6" value="" style="endArrow=none;dashed=1;html=1;rounded=0;" parent="1" target="yxxo4-zVaS4fGQQ0rP6h-3" edge="1" source="on1UFeotRf2JKw0CUGzS-1">
          <mxGeometry width="50" height="50" relative="1" as="geometry">
            <mxPoint x="65" y="440" as="sourcePoint" />
            <mxPoint x="400" y="240" as="targetPoint" />
          </mxGeometry>
        </mxCell>
        <mxCell id="yxxo4-zVaS4fGQQ0rP6h-7" value="" style="endArrow=classic;html=1;rounded=0;" parent="1" edge="1">
          <mxGeometry width="50" height="50" relative="1" as="geometry">
            <mxPoint x="80" y="200" as="sourcePoint" />
            <mxPoint x="240" y="200" as="targetPoint" />
          </mxGeometry>
        </mxCell>
        <mxCell id="yxxo4-zVaS4fGQQ0rP6h-8" value="Request to Edit Station" style="edgeLabel;html=1;align=center;verticalAlign=middle;resizable=0;points=[];" parent="yxxo4-zVaS4fGQQ0rP6h-7" vertex="1" connectable="0">
          <mxGeometry x="0.0095" y="-2" relative="1" as="geometry">
            <mxPoint as="offset" />
          </mxGeometry>
        </mxCell>
        <mxCell id="yxxo4-zVaS4fGQQ0rP6h-9" value="" style="endArrow=classic;html=1;rounded=0;" parent="1" edge="1">
          <mxGeometry width="50" height="50" relative="1" as="geometry">
            <mxPoint x="280" y="210" as="sourcePoint" />
            <mxPoint x="490" y="210" as="targetPoint" />
          </mxGeometry>
        </mxCell>
        <mxCell id="yxxo4-zVaS4fGQQ0rP6h-10" value="Perform Edit Operation" style="edgeLabel;html=1;align=center;verticalAlign=middle;resizable=0;points=[];" parent="yxxo4-zVaS4fGQQ0rP6h-9" vertex="1" connectable="0">
          <mxGeometry x="-0.0268" y="-1" relative="1" as="geometry">
            <mxPoint as="offset" />
          </mxGeometry>
        </mxCell>
        <mxCell id="yxxo4-zVaS4fGQQ0rP6h-11" value="" style="endArrow=classic;html=1;rounded=0;dashed=1;" parent="1" edge="1">
          <mxGeometry width="50" height="50" relative="1" as="geometry">
            <mxPoint x="480" y="240" as="sourcePoint" />
            <mxPoint x="280" y="240" as="targetPoint" />
          </mxGeometry>
        </mxCell>
        <mxCell id="yxxo4-zVaS4fGQQ0rP6h-12" value="Confirm Edit Success" style="edgeLabel;html=1;align=center;verticalAlign=middle;resizable=0;points=[];" parent="yxxo4-zVaS4fGQQ0rP6h-11" vertex="1" connectable="0">
          <mxGeometry x="0.021" y="-1" relative="1" as="geometry">
            <mxPoint as="offset" />
          </mxGeometry>
        </mxCell>
        <mxCell id="yxxo4-zVaS4fGQQ0rP6h-13" value="" style="endArrow=classic;html=1;rounded=0;dashed=1;" parent="1" edge="1">
          <mxGeometry width="50" height="50" relative="1" as="geometry">
            <mxPoint x="240" y="250" as="sourcePoint" />
            <mxPoint x="80" y="250" as="targetPoint" />
          </mxGeometry>
        </mxCell>
        <mxCell id="yxxo4-zVaS4fGQQ0rP6h-14" value="Display Edited Stations" style="edgeLabel;html=1;align=center;verticalAlign=middle;resizable=0;points=[];" parent="yxxo4-zVaS4fGQQ0rP6h-13" vertex="1" connectable="0">
          <mxGeometry x="0.0143" y="-2" relative="1" as="geometry">
            <mxPoint as="offset" />
          </mxGeometry>
        </mxCell>
        <mxCell id="on1UFeotRf2JKw0CUGzS-2" value="" style="endArrow=none;dashed=1;html=1;rounded=0;" edge="1" parent="1" target="on1UFeotRf2JKw0CUGzS-1">
          <mxGeometry width="50" height="50" relative="1" as="geometry">
            <mxPoint x="65" y="440" as="sourcePoint" />
            <mxPoint x="65" y="160" as="targetPoint" />
          </mxGeometry>
        </mxCell>
        <mxCell id="on1UFeotRf2JKw0CUGzS-1" value="" style="rounded=0;whiteSpace=wrap;html=1;" vertex="1" parent="1">
          <mxGeometry x="60" y="190" width="10" height="20" as="geometry" />
        </mxCell>
        <mxCell id="on1UFeotRf2JKw0CUGzS-3" value="" style="rounded=0;whiteSpace=wrap;html=1;" vertex="1" parent="1">
          <mxGeometry x="255" y="190" width="10" height="70" as="geometry" />
        </mxCell>
        <mxCell id="on1UFeotRf2JKw0CUGzS-5" value="" style="endArrow=none;dashed=1;html=1;rounded=0;" edge="1" parent="1" target="on1UFeotRf2JKw0CUGzS-4">
          <mxGeometry width="50" height="50" relative="1" as="geometry">
            <mxPoint x="500" y="440" as="sourcePoint" />
            <mxPoint x="500" y="160" as="targetPoint" />
          </mxGeometry>
        </mxCell>
        <mxCell id="on1UFeotRf2JKw0CUGzS-4" value="" style="rounded=0;whiteSpace=wrap;html=1;" vertex="1" parent="1">
          <mxGeometry x="495" y="200" width="10" height="50" as="geometry" />
        </mxCell>
      </root>
    </mxGraphModel>
  </diagram>
</mxfile>
